<svg width="1024" height="683" viewBox="0 0 1024 683" fill="none" xmlns="http://www.w3.org/2000/svg">
<g id="routes_for_edit 1" clip-path="url(#clip0_6_2)">
<path id="Vector" d="M1200 0H0V800H1200V0Z" fill="white"/>
<path id="Vancouver_Calgary" d="M110.7 105.3C163 87.8 202.5 94.5 240.4 87.8" stroke="black" stroke-width="2"/>
<path id="Vancouver_Seattle" d="M110.7 105.3C105.567 122.967 104.033 140.933 106.1 159.2" stroke="black" stroke-width="2"/>
<path id="Vancouver_Seattle_2" d="M110.7 105.3C117.5 133 110.7 146.5 106.1 159.2" stroke="black" stroke-width="2"/>
<path id="Seattle_Calgary" d="M106.1 159.2C187.5 163 230 146 240.4 87.8" stroke="black" stroke-width="2"/>
<path id="Seattle_Helena" d="M106.1 159.2C181.767 189.267 259.967 209.633 340.7 220.3" stroke="black" stroke-width="2"/>
<path id="Seattle_Portland" d="M106.1 159.2C95.3666 175.133 88.1 192.533 84.3 211.4" stroke="black" stroke-width="2"/>
<path id="Seattle_Portland_2" d="M106.1 159.2C106.1 186 97.5 194.5 84.3 211.4" stroke="black" stroke-width="2"/>
<path id="Portland_Salt_Lake_City" d="M84.3 211.4C155.5 223.5 229.5 251 268.9 343.9" stroke="black" stroke-width="2"/>
<path id="Portland_San_Francisco" d="M84.3 211.4C66.4333 276 61.6667 341.567 70 408.1" stroke="black" stroke-width="2"/>
<path id="Portland_San_Francisco_2" d="M84.3 211.4C53 279 53.5 345.5 70 408.1" stroke="black" stroke-width="2"/>
<path id="San_Francisco_Salt_Lake_City" d="M70 408.1C131 400 205.5 372 268.9 343.9" stroke="black" stroke-width="2"/>
<path id="San_Francisco_Salt_Lake_City_2" d="M70 408.1C134.5 373.5 236 343.9 268.9 343.9" stroke="black" stroke-width="2"/>
<path id="San_Francisco_Los_Angeles" d="M70 408.1C89.1333 447.967 115.2 482.633 148.2 512.1" stroke="black" stroke-width="2"/>
<path id="San_Francisco_Los_Angeles_2" d="M70 408.1C89.1333 447.967 115.2 482.633 148.2 512.1" stroke="black" stroke-width="2"/>
<path id="Los_Angeles_Las_Vegas" d="M148.2 512.1C163.5 453.9 174.5 453.9 212.5 453.9" stroke="black" stroke-width="2"/>
<path id="Los_Angeles_Phoenix" d="M148.2 512.1C205.5 490 239 504.5 267.9 518.9" stroke="black" stroke-width="2"/>
<path id="Los_Angeles_El_Paso" d="M148.2 512.1C241.5 580 307.5 576 386.8 556.4" stroke="black" stroke-width="2"/>
<path id="Calgary_Winnipeg" d="M240.4 87.8C333 58 394.5 50.5 464.3 98.9" stroke="black" stroke-width="2"/>
<path id="Calgary_Helena" d="M240.4 87.8C281.5 136 334 191.5 340.7 220.3" stroke="black" stroke-width="2"/>
<path id="Helena_Winnipeg" d="M340.7 220.3C382.5 175.5 420 140 464.3 98.9" stroke="black" stroke-width="2"/>
<path id="Helena_Salt_Lake_City" d="M340.7 220.3C311.3 258.3 287.367 299.5 268.9 343.9" stroke="black" stroke-width="2"/>
<path id="Helena_Denver" d="M340.7 220.3C353.5 274.433 373.133 325.967 399.6 374.9" stroke="black" stroke-width="2"/>
<path id="Helena_Duluth" d="M340.7 220.3C444 214.6 499.5 220.3 577.1 214.6" stroke="black" stroke-width="2"/>
<path id="Helena_Omaha" d="M340.7 220.3C425.5 259 471.5 279 547.5 306.4" stroke="black" stroke-width="2"/>
<path id="Salt_Lake_City_Denver" d="M268.9 343.9C310.433 362.967 354 373.3 399.6 374.9" stroke="black" stroke-width="2"/>
<path id="Salt_Lake_City_Denver_2" d="M268.9 343.9C310.433 362.967 354 373.3 399.6 374.9" stroke="black" stroke-width="2"/>
<path id="Las_Vegas_Salt_Lake_City" d="M212.5 453.9C260 433 268.9 387.5 268.9 343.9" stroke="black" stroke-width="2"/>
<path id="Phoenix_Denver" d="M267.9 518.9C309.5 418 341 391.5 399.6 374.9" stroke="black" stroke-width="2"/>
<path id="Phoenix_Santa_Fe" d="M267.9 518.9C312.033 507.567 353.433 489.8 392.1 465.6" stroke="black" stroke-width="2"/>
<path id="Phoenix_El_Paso" d="M267.9 518.9C305.567 537.5 345.2 550 386.8 556.4" stroke="black" stroke-width="2"/>
<path id="Winnipeg_Sault_St._Marie" d="M464.3 98.9C561 104 626 132 705 148.5" stroke="black" stroke-width="2"/>
<path id="Winnipeg_Duluth" d="M464.3 98.9C496.967 142.233 534.567 180.8 577.1 214.6" stroke="black" stroke-width="2"/>
<path id="Duluth_Sault_St._Marie" d="M577.1 214.6C624 176.5 665.533 176.7 705 148.5" stroke="black" stroke-width="2"/>
<path id="Duluth_Toronto" d="M577.1 214.6C669.5 197.5 736.5 195 814.3 169.6" stroke="black" stroke-width="2"/>
<path id="Duluth_Chicago" d="M577.1 214.6C615.1 241.2 656.2 261.533 700.4 275.6" stroke="black" stroke-width="2"/>
<path id="Duluth_Omaha" d="M577.1 214.6C561.1 243.2 551.233 273.8 547.5 306.4" stroke="black" stroke-width="2"/>
<path id="Duluth_Omaha_2" d="M577.1 214.6C574 253 559 278.5 547.5 306.4" stroke="black" stroke-width="2"/>
<path id="Omaha_Chicago" d="M547.5 306.4C615.5 270 622.5 275.6 700.4 275.6" stroke="black" stroke-width="2"/>
<path id="Omaha_Kansas_City" d="M547.5 306.4C551.033 324.667 557.933 341.567 568.2 357.1" stroke="black" stroke-width="2"/>
<path id="Omaha_Kansas_City_2" d="M547.5 306.4C579 332 565 334 568.2 357.1" stroke="black" stroke-width="2"/>
<path id="Kansas_City_Saint_Louis" d="M568.2 357.1C596.533 363.367 625 363.967 653.6 358.9" stroke="black" stroke-width="2"/>
<path id="Kansas_City_Saint_Louis_2" d="M568.2 357.1C596.533 363.367 625 363.967 653.6 358.9" stroke="black" stroke-width="2"/>
<path id="Kansas_City_Oklahoma_City" d="M568.2 357.1C555.733 384.7 549.067 413.633 548.2 443.9" stroke="black" stroke-width="2"/>
<path id="Kansas_City_Oklahoma_City_2" d="M568.2 357.1C577 408 563 418.5 548.2 443.9" stroke="black" stroke-width="2"/>
<path id="Oklahoma_City_Little_Rock" d="M548.2 443.9C578 449.833 608 451.133 638.2 447.8" stroke="black" stroke-width="2"/>
<path id="Oklahoma_City_Dallas" d="M548.2 443.9C554.5 481.5 555.433 503.967 567.9 532.1" stroke="black" stroke-width="2"/>
<path id="Oklahoma_City_Dallas_2" d="M548.2 443.9C578 480 572 510 567.9 532.1" stroke="black" stroke-width="2"/>
<path id="Dallas_Little_Rock" d="M567.9 532.1C595.7 507.633 619.133 479.533 638.2 447.8" stroke="black" stroke-width="2"/>
<path id="Dallas_Houston" d="M567.9 532.1C578 556 593.5 566 609.6 571.7" stroke="black" stroke-width="2"/>
<path id="Dallas_Houston_2" d="M567.9 532.1C602.5 542.5 597.5 560 609.6 571.7" stroke="black" stroke-width="2"/>
<path id="Houston_New_Orleans" d="M609.6 571.7C641.133 572.033 672.1 568.1 702.5 559.9" stroke="black" stroke-width="2"/>
<path id="El_Paso_Houston" d="M386.8 556.4C462 615.5 566.5 605 609.6 571.7" stroke="black" stroke-width="2"/>
<path id="El_Paso_Dallas" d="M386.8 556.4C448.533 558.6 508.9 550.5 567.9 532.1" stroke="black" stroke-width="2"/>
<path id="El_Paso_Oklahoma_City" d="M386.8 556.4C446.4 527.2 500.2 489.7 548.2 443.9" stroke="black" stroke-width="2"/>
<path id="El_Paso_Santa_Fe" d="M386.8 556.4C392.733 526.4 394.5 496.133 392.1 465.6" stroke="black" stroke-width="2"/>
<path id="Santa_Fe_Oklahoma_City" d="M392.1 465.6C445.3 466.4 497.333 459.167 548.2 443.9" stroke="black" stroke-width="2"/>
<path id="Oklahoma_City_Denver" d="M548.2 443.9C473.5 439 432 435 399.6 374.9" stroke="black" stroke-width="2"/>
<path id="Santa_Fe_Denver" d="M392.1 465.6C398.633 435.733 401.133 405.5 399.6 374.9" stroke="black" stroke-width="2"/>
<path id="Denver_Kansas_City" d="M399.6 374.9C457 380.233 513.2 374.3 568.2 357.1" stroke="black" stroke-width="2"/>
<path id="Denver_Kansas_City_2" d="M399.6 374.9C457 380.233 513.2 374.3 568.2 357.1" stroke="black" stroke-width="2"/>
<path id="Denver_Omaha" d="M399.6 374.9C444 334 476 316.5 547.5 306.4" stroke="black" stroke-width="2"/>
<path id="New_Orleans_Miami" d="M702.5 559.9C848.5 520 816.5 531 925.4 597.4" stroke="black" stroke-width="2"/>
<path id="New_Orleans_Atlanta" d="M702.5 559.9C717.5 548.5 753 482.5 799.3 432.4" stroke="black" stroke-width="2"/>
<path id="New_Orleans_Atlanta_2" d="M702.5 559.9C711.5 498 757.5 457 799.3 432.4" stroke="black" stroke-width="2"/>
<path id="New_Orleans_Little_Rock" d="M702.5 559.9C686.167 519.633 664.733 482.267 638.2 447.8" stroke="black" stroke-width="2"/>
<path id="Little_Rock_Nashville" d="M638.2 447.8C677.6 436.6 714.4 419.7 748.6 397.1" stroke="black" stroke-width="2"/>
<path id="Little_Rock_Saint_Louis" d="M638.2 447.8C647.733 418.933 652.867 389.3 653.6 358.9" stroke="black" stroke-width="2"/>
<path id="Saint_Louis_Nashville" d="M653.6 358.9C683.267 376.5 714.933 389.233 748.6 397.1" stroke="black" stroke-width="2"/>
<path id="Saint_Louis_Pittsburgh" d="M653.6 358.9C717.733 335.233 776.9 302.6 831.1 261" stroke="black" stroke-width="2"/>
<path id="Saint_Louis_Chicago" d="M653.6 358.9C674.733 334.233 690.333 306.467 700.4 275.6" stroke="black" stroke-width="2"/>
<path id="Saint_Louis_Chicago_2" d="M653.6 358.9C674.733 334.233 690.333 306.467 700.4 275.6" stroke="black" stroke-width="2"/>
<path id="Chicago_Pittsburgh" d="M700.4 275.6C757 261 791.5 261 831.1 261" stroke="black" stroke-width="2"/>
<path id="Chicago_Pittsburgh_2" d="M700.4 275.6C760 242.5 803 247 831.1 261" stroke="black" stroke-width="2"/>
<path id="Chicago_Toronto" d="M700.4 275.6C700.4 217.5 792.5 216 814.3 169.6" stroke="black" stroke-width="2"/>
<path id="Sault_St._Marie_Montreal" d="M705 148.5C767.5 83.5 830 71.5 896.4 83.5" stroke="black" stroke-width="2"/>
<path id="Toronto_Montreal" d="M814.3 169.6C806 123.5 861 96.5 896.4 83.5" stroke="black" stroke-width="2"/>
<path id="Sault_St._Marie_Toronto" d="M705 148.5C740.467 160.633 776.9 167.667 814.3 169.6" stroke="black" stroke-width="2"/>
<path id="Toronto_Pittsburgh" d="M814.3 169.6C831.1 200 821.1 231.333 831.1 261" stroke="black" stroke-width="2"/>
<path id="Pittsburgh_New_York" d="M831.1 261C862.167 251.6 890.267 236.6 915.4 216" stroke="black" stroke-width="2"/>
<path id="Pittsburgh_New_York_2" d="M831.1 261C876 219.5 892.5 216 915.4 216" stroke="black" stroke-width="2"/>
<path id="Pittsburgh_Washington" d="M831.1 261C867.5 282 890.133 296.233 923.2 306.7" stroke="black" stroke-width="2"/>
<path id="Pittsburgh_Raleigh" d="M831.1 261C850.5 308 847.8 338.2 865 374.2" stroke="black" stroke-width="2"/>
<path id="Nashville_Raleigh" d="M748.6 397.1C808 350 835 361 865 374.2" stroke="black" stroke-width="2"/>
<path id="Nashville_Atlanta" d="M748.6 397.1C763.667 411.5 780.567 423.267 799.3 432.4" stroke="black" stroke-width="2"/>
<path id="Nashville_Pittsburgh" d="M748.6 397.1C743.5 352 818.5 326.5 831.1 261" stroke="black" stroke-width="2"/>
<path id="Atlanta_Miami" d="M799.3 432.4C808.5 462.5 882 544.5 925.4 597.4" stroke="black" stroke-width="2"/>
<path id="Atlanta_Charleston" d="M799.3 432.4C830.1 439.933 861.3 442.333 892.9 439.6" stroke="black" stroke-width="2"/>
<path id="Atlanta_Raleigh" d="M799.3 432.4C825.1 417.4 847 398 865 374.2" stroke="black" stroke-width="2"/>
<path id="Atlanta_Raleigh_2" d="M799.3 432.4C825.1 417.4 847 398 865 374.2" stroke="black" stroke-width="2"/>
<path id="Charleston_Miami" d="M892.9 439.6C895.633 493.867 906.467 546.467 925.4 597.4" stroke="black" stroke-width="2"/>
<path id="Raleigh_Charleston" d="M865 374.2C919.5 409.5 907.5 408 892.9 439.6" stroke="black" stroke-width="2"/>
<path id="Raleigh_Washington" d="M865 374.2C888.933 355.6 908.333 333.1 923.2 306.7" stroke="black" stroke-width="2"/>
<path id="Raleigh_Washington_2" d="M865 374.2C888.933 355.6 908.333 333.1 923.2 306.7" stroke="black" stroke-width="2"/>
<path id="Washington_New_York" d="M923.2 306.7C926.667 275.967 924.067 245.733 915.4 216" stroke="black" stroke-width="2"/>
<path id="Washington_New_York_2" d="M923.2 306.7C926.667 275.967 924.067 245.733 915.4 216" stroke="black" stroke-width="2"/>
<path id="New_York_Boston" d="M915.4 216C947.5 199 960 172 967.9 141" stroke="black" stroke-width="2"/>
<path id="New_York_Boston_2" d="M915.4 216C933 191 941 165 967.9 141" stroke="black" stroke-width="2"/>
<path id="New_York_Montreal" d="M915.4 216C908 176.5 890 143.5 896.4 83.5" stroke="black" stroke-width="2"/>
<path id="Boston_Montreal" d="M967.9 141C947.9 117.067 924.067 97.9 896.4 83.5" stroke="black" stroke-width="2"/>
<path id="Boston_Montreal_2" d="M967.9 141C941 123.5 931.5 119 896.4 83.5" stroke="black" stroke-width="2"/>
</g>
<defs>
<clipPath id="clip0_6_2">
<rect width="1200" height="800" fill="white"/>
</clipPath>
</defs>
</svg>
